<svg width="29" height="32" viewBox="0 0 29 32" fill="none" xmlns="http://www.w3.org/2000/svg">
<g clip-path="url(#clip0_1042_28385)">
<path d="M26.7338 24C28.3144 21.7004 29.2331 18.9615 29.2331 16C29.2331 13.0385 28.3144 10.2996 26.7338 8H17.8379C21.119 9.26106 23.4756 12.3595 23.4756 16C23.4756 19.6405 21.119 22.7389 17.8379 24H26.7338ZM11.1617 24H17.8379V8H11.1617V24ZM2.26589 24H11.1617C7.88072 22.7389 5.52409 19.6405 5.52409 16C5.52409 12.3595 7.88072 9.26106 11.1617 8H2.26589C0.685289 10.2996 -0.233398 13.0385 -0.233398 16C-0.233398 18.9615 0.685289 21.7004 2.26589 24Z" fill="black"/>
</g>
<defs>
<clipPath id="clip0_1042_28385">
<rect width="29" height="32" fill="white"/>
</clipPath>
</defs>
</svg>
